<?xml version="1.0" encoding="UTF-8" standalone="no"?>
<svg
   xmlns:dc="http://purl.org/dc/elements/1.1/"
   xmlns:cc="http://creativecommons.org/ns#"
   xmlns:rdf="http://www.w3.org/1999/02/22-rdf-syntax-ns#"
   xmlns:svg="http://www.w3.org/2000/svg"
   xmlns="http://www.w3.org/2000/svg"
   xmlns:sodipodi="http://sodipodi.sourceforge.net/DTD/sodipodi-0.dtd"
   xmlns:inkscape="http://www.inkscape.org/namespaces/inkscape"
   width="64"
   height="64"
   viewBox="0 0 64 64"
   version="1.1"
   id="svg8"
   sodipodi:docname="connected.svg"
   inkscape:version="0.92.1 r15371">
  <metadata
     id="metadata14">
    <rdf:RDF>
      <cc:Work
         rdf:about="">
        <dc:format>image/svg+xml</dc:format>
        <dc:type
           rdf:resource="http://purl.org/dc/dcmitype/StillImage" />
        <dc:title />
      </cc:Work>
    </rdf:RDF>
  </metadata>
  <defs
     id="defs12" />
  <sodipodi:namedview
     pagecolor="#ffffff"
     bordercolor="#666666"
     borderopacity="1"
     objecttolerance="10"
     gridtolerance="10"
     guidetolerance="10"
     inkscape:pageopacity="0"
     inkscape:pageshadow="2"
     inkscape:window-width="1920"
     inkscape:window-height="1009"
     id="namedview10"
     showgrid="false"
     fit-margin-top="0"
     fit-margin-left="0"
     fit-margin-right="0"
     fit-margin-bottom="0"
     inkscape:zoom="0.91899441"
     inkscape:cx="240.10748"
     inkscape:cy="42"
     inkscape:window-x="0"
     inkscape:window-y="0"
     inkscape:window-maximized="1"
     inkscape:current-layer="svg8" />
  <path
     style="display:inline;fill:#4687ff;fill-opacity:1;fill-rule:evenodd;stroke-width:0.6700328"
     inkscape:connector-curvature="0"
     id="path4"
     d="M 32,60 C 16.536115,60 4,47.464098 4,32.000001 4,16.535905 16.536115,4 32,4 47.463885,4 60,16.535905 60,32.000001 60,47.464098 47.463885,60 32,60 Z m -7.850369,-33.936004 4.293143,6.405598 -1.399332,-4.803853 5.03972,-7.44261 8.213033,12.246463 -1.4,-4.803853 1.026723,-1.507954 11.759596,17.428145 C 54.668829,38.310448 55.69554,31.715947 53.548952,24.839417 51.40238,17.962221 46.17633,12.592292 39.455794,10.519621 23.77633,5.4323872 9.310551,17.114121 9.310551,32.093111 c 0,4.144675 1.119867,8.007317 2.986314,11.304574 z" />
</svg>
